<?xml version="1.0" encoding="utf-8"?>
<!-- Svg Vector Icons : http://www.onlinewebfonts.com/icon -->
<!DOCTYPE svg PUBLIC "-//W3C//DTD SVG 1.1//EN" "http://www.w3.org/Graphics/SVG/1.1/DTD/svg11.dtd">
<svg version="1.1" xmlns="http://www.w3.org/2000/svg" xmlns:xlink="http://www.w3.org/1999/xlink" x="0px" y="0px" viewBox="0 0 256 256" enable-background="new 0 0 256 256" xml:space="preserve">
<metadata> Svg Vector Icons : http://www.onlinewebfonts.com/icon </metadata>
<g><g><g><path fill="#000000" d="M117.9,48c-22.2,3-42.4,16.9-53.6,36.7c-1.4,2.6-1.6,2.7-3.9,3c-7.3,1-18.3,5.7-25.3,10.8c-12.8,9.4-21.9,23.8-24.5,39c-1,5.2-0.9,15.5,0,20.6c2.3,12.5,7.8,22.8,17.1,32.2c8.8,8.8,16.9,13.5,29.1,16.8l4.8,1.3l69.4,0.1c68.8,0.1,69.5,0.1,74.3-0.9c18.7-3.8,33.5-17.6,39.3-36.4c1.2-4,1.3-4.9,1.3-13.1c0-8.2-0.1-9.1-1.3-13.1c-6.1-19.9-22.5-34.4-42.1-37l-4.3-0.6l-1.2-4.9c-6.6-26.7-28.5-47.8-55.5-53.6C136.2,47.7,123.3,47.2,117.9,48z M142,56.6c11.7,2.8,21.3,8,29.6,16c11.1,10.7,17.6,23.8,19.7,40l0.3,2.5h4.6c18.3,0,34.3,11.2,40.2,28.1c2.3,6.8,3,16.3,1.6,23.4c-3.2,16.2-14.2,27.9-31,33c-3.3,1-3.8,1-71.9,1.1c-60.8,0.1-69.1,0-73.2-0.6c-11.7-1.9-21.5-7-29.5-15.4c-7.9-8.2-12.6-17.8-14.2-28.6c-0.9-5.9-0.4-16.9,1-22c5.3-20.1,21.2-35,41.6-38.8c2-0.4,4.6-0.7,5.5-0.7c1.7,0,1.8-0.1,3.4-3.4c4.7-9.8,13.1-19.5,21.9-25.4c7.3-4.9,16.8-8.6,25.4-10C123.5,54.7,135.6,55.2,142,56.6z"/></g></g></g>
</svg>