<?xml version="1.0" encoding="us-ascii" standalone="no"?><svg xmlns="http://www.w3.org/2000/svg" xmlns:xlink="http://www.w3.org/1999/xlink" contentStyleType="text/css" height="2535px" preserveAspectRatio="none" style="width:866px;height:2535px;background:#FFFFFF;" version="1.1" viewBox="0 0 866 2535" width="866px" zoomAndPan="magnify"><defs/><g><ellipse cx="437" cy="20" fill="#222222" rx="10" ry="10" style="stroke:#222222;stroke-width:1.0;"/><rect fill="none" height="213.4221" style="stroke:#000000;stroke-width:1.5;" width="415" x="329.5" y="40"/><path d="M491.5,40 L491.5,52.0679 L481.5,62.0679 L329.5,62.0679 " fill="none" style="stroke:#000000;stroke-width:1.5;"/><text fill="#000000" font-family="sans-serif" font-size="14" lengthAdjust="spacing" textLength="152" x="332.5" y="55.9659">Baseline Design Space</text><path d="M554.5,72.0679 L554.5,152.745 L534.5,156.745 L554.5,160.745 L554.5,241.4221 A0,0 0 0 0 554.5,241.4221 L734.5,241.4221 A0,0 0 0 0 734.5,241.4221 L734.5,82.0679 L724.5,72.0679 L554.5,72.0679 A0,0 0 0 0 554.5,72.0679 " fill="#FEFFDD" style="stroke:#181818;stroke-width:0.5;"/><path d="M724.5,72.0679 L724.5,82.0679 L734.5,82.0679 L724.5,72.0679 " fill="#FEFFDD" style="stroke:#181818;stroke-width:0.5;"/><text fill="#000000" font-family="sans-serif" font-size="13" lengthAdjust="spacing" textLength="159" x="560.5" y="90.9649">Each baseline is defined as:</text><text fill="#000000" font-family="sans-serif" font-size="13" lengthAdjust="spacing" textLength="127" x="560.5" y="108.6709">B[D1,D2,D3,D4,D5,D6]</text><text fill="#000000" font-family="sans-serif" font-size="13" lengthAdjust="spacing" textLength="3" x="560.5" y="126.377">&#160;</text><text fill="#000000" font-family="sans-serif" font-size="13" lengthAdjust="spacing" textLength="108" x="560.5" y="144.083">D1: WM backbone</text><text fill="#000000" font-family="sans-serif" font-size="13" lengthAdjust="spacing" textLength="89" x="560.5" y="161.789">D2: Joint-policy</text><text fill="#000000" font-family="sans-serif" font-size="13" lengthAdjust="spacing" textLength="100" x="560.5" y="179.495">D3: Environment</text><text fill="#000000" font-family="sans-serif" font-size="13" lengthAdjust="spacing" textLength="144" x="560.5" y="197.201">D4: Symbolic coverage &#954;</text><text fill="#000000" font-family="sans-serif" font-size="13" lengthAdjust="spacing" textLength="143" x="560.5" y="214.907">D5: Integration strategy</text><text fill="#000000" font-family="sans-serif" font-size="13" lengthAdjust="spacing" textLength="116" x="560.5" y="232.6131">D6: Training regime</text><rect fill="#F1F1F1" height="52.6882" rx="12.5" ry="12.5" style="stroke:#181818;stroke-width:0.5;" width="195" x="339.5" y="130.4009"/><text fill="#000000" font-family="sans-serif" font-size="12" lengthAdjust="spacing" textLength="175" x="349.5" y="153.229">Select representative baselines</text><text fill="#000000" font-family="sans-serif" font-size="12" lengthAdjust="spacing" textLength="124" x="349.5" y="169.5731">from the design space</text><rect fill="none" height="730.5091" style="stroke:#000000;stroke-width:1.5;" width="502" x="200.5" y="263.4221"/><path d="M427.5,263.4221 L427.5,275.49 L417.5,285.49 L200.5,285.49 " fill="none" style="stroke:#000000;stroke-width:1.5;"/><text fill="#000000" font-family="sans-serif" font-size="14" lengthAdjust="spacing" textLength="217" x="203.5" y="279.388">Experimental Protocol - Training</text><rect fill="#F1F1F1" height="36.3441" rx="12.5" ry="12.5" style="stroke:#181818;stroke-width:0.5;" width="183" x="345.5" y="346.49"/><text fill="#000000" font-family="sans-serif" font-size="12" lengthAdjust="spacing" textLength="163" x="355.5" y="369.3181">Initialize environment variant</text><polygon fill="#F1F1F1" points="392.5,402.8341,481.5,402.8341,493.5,414.8341,481.5,426.8341,392.5,426.8341,380.5,414.8341,392.5,402.8341" style="stroke:#181818;stroke-width:0.5;"/><text fill="#000000" font-family="sans-serif" font-size="11" lengthAdjust="spacing" textLength="89" x="392.5" y="419.1021">Training regime?</text><text fill="#000000" font-family="sans-serif" font-size="11" lengthAdjust="spacing" textLength="13" x="367.5" y="411.6111">SV</text><text fill="#000000" font-family="sans-serif" font-size="11" lengthAdjust="spacing" textLength="17" x="493.5" y="411.6111">MV</text><rect fill="#F1F1F1" height="36.3441" rx="12.5" ry="12.5" style="stroke:#181818;stroke-width:0.5;" width="204" x="220.5" y="436.8341"/><text fill="#000000" font-family="sans-serif" font-size="12" lengthAdjust="spacing" textLength="184" x="230.5" y="459.6622">Reuse same environment variant</text><rect fill="#F1F1F1" height="36.3441" rx="12.5" ry="12.5" style="stroke:#181818;stroke-width:0.5;" width="214" x="444.5" y="436.8341"/><text fill="#000000" font-family="sans-serif" font-size="12" lengthAdjust="spacing" textLength="194" x="454.5" y="459.6622">Sample a new environment variant</text><polygon fill="#F1F1F1" points="437,479.1782,449,491.1782,437,503.1782,425,491.1782,437,479.1782" style="stroke:#181818;stroke-width:0.5;"/><rect fill="#F1F1F1" height="36.3441" rx="12.5" ry="12.5" style="stroke:#181818;stroke-width:0.5;" width="210" x="332" y="523.1782"/><text fill="#000000" font-family="sans-serif" font-size="12" lengthAdjust="spacing" textLength="190" x="342" y="546.0063">Run real-environment interactions</text><polygon fill="#F1F1F1" points="377.5,579.5223,496.5,579.5223,508.5,591.5223,496.5,603.5223,377.5,603.5223,365.5,591.5223,377.5,579.5223" style="stroke:#181818;stroke-width:0.5;"/><text fill="#000000" font-family="sans-serif" font-size="11" lengthAdjust="spacing" textLength="119" x="377.5" y="595.7903">Model-based baseline?</text><text fill="#000000" font-family="sans-serif" font-size="11" lengthAdjust="spacing" textLength="17" x="348.5" y="588.2993">yes</text><text fill="#000000" font-family="sans-serif" font-size="11" lengthAdjust="spacing" textLength="14" x="508.5" y="588.2993">no</text><rect fill="#F1F1F1" height="52.6882" rx="12.5" ry="12.5" style="stroke:#181818;stroke-width:0.5;" width="117" x="276.25" y="613.5223"/><text fill="#000000" font-family="sans-serif" font-size="12" lengthAdjust="spacing" textLength="97" x="286.25" y="636.3504">Store trajectories</text><text fill="#000000" font-family="sans-serif" font-size="12" lengthAdjust="spacing" textLength="85" x="286.25" y="652.6945">in replay buffer</text><rect fill="#F1F1F1" height="36.3441" rx="12.5" ry="12.5" style="stroke:#181818;stroke-width:0.5;" width="133" x="268.25" y="686.2106"/><text fill="#000000" font-family="sans-serif" font-size="12" lengthAdjust="spacing" textLength="113" x="278.25" y="709.0386">Update world model</text><rect fill="#F1F1F1" height="36.3441" rx="12.5" ry="12.5" style="stroke:#181818;stroke-width:0.5;" width="187" x="241.25" y="742.5547"/><text fill="#000000" font-family="sans-serif" font-size="12" lengthAdjust="spacing" textLength="167" x="251.25" y="765.3828">Generate imagination rollouts</text><rect fill="#F1F1F1" height="52.6882" rx="12.5" ry="12.5" style="stroke:#181818;stroke-width:0.5;" width="204" x="232.75" y="798.8988"/><text fill="#000000" font-family="sans-serif" font-size="12" lengthAdjust="spacing" textLength="104" x="242.75" y="821.7269">Update joint-policy</text><text fill="#000000" font-family="sans-serif" font-size="12" lengthAdjust="spacing" textLength="184" x="242.75" y="838.071">from real + imagined trajectories</text><rect fill="#F1F1F1" height="52.6882" rx="12.5" ry="12.5" style="stroke:#181818;stroke-width:0.5;" width="165" x="456.75" y="613.5223"/><text fill="#000000" font-family="sans-serif" font-size="12" lengthAdjust="spacing" textLength="104" x="466.75" y="636.3504">Update joint-policy</text><text fill="#000000" font-family="sans-serif" font-size="12" lengthAdjust="spacing" textLength="145" x="466.75" y="652.6945">from real trajectories only</text><polygon fill="#F1F1F1" points="437,857.587,449,869.587,437,881.587,425,869.587,437,857.587" style="stroke:#181818;stroke-width:0.5;"/><rect fill="#F1F1F1" height="36.3441" rx="12.5" ry="12.5" style="stroke:#181818;stroke-width:0.5;" width="192" x="341" y="901.587"/><text fill="#000000" font-family="sans-serif" font-size="12" lengthAdjust="spacing" textLength="172" x="351" y="924.4151">Collect training measurements</text><polygon fill="#F1F1F1" points="437,302.49,449,314.49,437,326.49,425,314.49,437,302.49" style="stroke:#181818;stroke-width:0.5;"/><polygon fill="#F1F1F1" points="333,957.9311,541,957.9311,553,969.9311,541,981.9311,333,981.9311,321,969.9311,333,957.9311" style="stroke:#181818;stroke-width:0.5;"/><text fill="#000000" font-family="sans-serif" font-size="11" lengthAdjust="spacing" textLength="208" x="333" y="974.1991">Maximum episode budget not reached?</text><rect fill="none" height="724.6468" style="stroke:#000000;stroke-width:1.5;" width="844" x="11" y="1003.9311"/><path d="M231,1003.9311 L231,1015.999 L221,1025.999 L11,1025.999 " fill="none" style="stroke:#000000;stroke-width:1.5;"/><text fill="#000000" font-family="sans-serif" font-size="14" lengthAdjust="spacing" textLength="210" x="14" y="1019.8971">Experimental Protocol - Testing</text><rect fill="#555555" height="6" rx="2.5" ry="2.5" style="stroke:#555555;stroke-width:1.0;" width="824" x="21" y="1042.999"/><rect fill="#F1F1F1" height="36.3441" rx="12.5" ry="12.5" style="stroke:#181818;stroke-width:0.5;" width="183" x="33" y="1124.1368"/><text fill="#000000" font-family="sans-serif" font-size="12" lengthAdjust="spacing" textLength="163" x="43" y="1146.9649">Evaluate trained world model</text><rect fill="#F1F1F1" height="36.3441" rx="12.5" ry="12.5" style="stroke:#181818;stroke-width:0.5;" width="175" x="37" y="1256.3432"/><text fill="#000000" font-family="sans-serif" font-size="12" lengthAdjust="spacing" textLength="155" x="47" y="1279.1712">Initialize evaluation episode</text><rect fill="#F1F1F1" height="36.3441" rx="12.5" ry="12.5" style="stroke:#181818;stroke-width:0.5;" width="139" x="55" y="1321.5133"/><text fill="#000000" font-family="sans-serif" font-size="12" lengthAdjust="spacing" textLength="119" x="65" y="1344.3414">Run open-loop rollout</text><rect fill="#F1F1F1" height="52.6882" rx="12.5" ry="12.5" style="stroke:#181818;stroke-width:0.5;" width="170" x="39.5" y="1377.8574"/><text fill="#000000" font-family="sans-serif" font-size="12" lengthAdjust="spacing" textLength="147" x="49.5" y="1400.6855">Recursively feed predicted</text><text fill="#000000" font-family="sans-serif" font-size="12" lengthAdjust="spacing" textLength="150" x="49.5" y="1417.0296">observations back into WM</text><rect fill="#F1F1F1" height="52.6882" rx="12.5" ry="12.5" style="stroke:#181818;stroke-width:0.5;" width="167" x="41" y="1465.5456"/><text fill="#000000" font-family="sans-serif" font-size="12" lengthAdjust="spacing" textLength="147" x="51" y="1488.3737">Measure prediction errors</text><text fill="#000000" font-family="sans-serif" font-size="12" lengthAdjust="spacing" textLength="82" x="51" y="1504.7178">over horizon H</text><polygon fill="#F1F1F1" points="124.5,1184.3432,136.5,1196.3432,124.5,1208.3432,112.5,1196.3432,124.5,1184.3432" style="stroke:#181818;stroke-width:0.5;"/><polygon fill="#F1F1F1" points="64,1566.2338,185,1566.2338,197,1578.2338,185,1590.2338,64,1590.2338,52,1578.2338,64,1566.2338" style="stroke:#181818;stroke-width:0.5;"/><text fill="#000000" font-family="sans-serif" font-size="11" lengthAdjust="spacing" textLength="121" x="64" y="1582.5018">All horizons evaluated?</text><rect fill="#F1F1F1" height="36.3441" rx="12.5" ry="12.5" style="stroke:#181818;stroke-width:0.5;" width="156" x="462.5" y="1068.999"/><text fill="#000000" font-family="sans-serif" font-size="12" lengthAdjust="spacing" textLength="136" x="472.5" y="1091.8271">Evaluate trained policies</text><polygon fill="#F1F1F1" points="490.5,1201.2054,590.5,1201.2054,602.5,1213.2054,590.5,1225.2054,490.5,1225.2054,478.5,1213.2054,490.5,1201.2054" style="stroke:#181818;stroke-width:0.5;"/><text fill="#000000" font-family="sans-serif" font-size="11" lengthAdjust="spacing" textLength="100" x="490.5" y="1217.4734">Evaluation regime?</text><rect fill="#F1F1F1" height="36.3441" rx="12.5" ry="12.5" style="stroke:#181818;stroke-width:0.5;" width="175" x="264" y="1265.1692"/><text fill="#000000" font-family="sans-serif" font-size="12" lengthAdjust="spacing" textLength="155" x="274" y="1287.9972">Evaluate on known variants;</text><rect fill="#F1F1F1" height="36.3441" rx="12.5" ry="12.5" style="stroke:#181818;stroke-width:0.5;" width="161" x="459" y="1265.1692"/><text fill="#000000" font-family="sans-serif" font-size="12" lengthAdjust="spacing" textLength="141" x="469" y="1287.9972">Evaluate on same variant</text><rect fill="#F1F1F1" height="36.3441" rx="12.5" ry="12.5" style="stroke:#181818;stroke-width:0.5;" width="177" x="640" y="1265.1692"/><text fill="#000000" font-family="sans-serif" font-size="12" lengthAdjust="spacing" textLength="157" x="650" y="1287.9972">Evaluate on unseen variants</text><polygon fill="#F1F1F1" points="540.5,1390.3393,540.5,1390.3393,552.5,1402.3393,540.5,1414.3393,540.5,1414.3393,528.5,1402.3393,540.5,1390.3393" style="stroke:#181818;stroke-width:0.5;"/><rect fill="#F1F1F1" height="52.6882" rx="12.5" ry="12.5" style="stroke:#181818;stroke-width:0.5;" width="130" x="475.5" y="1449.3393"/><text fill="#000000" font-family="sans-serif" font-size="12" lengthAdjust="spacing" textLength="110" x="485.5" y="1472.1674">Run policies directly</text><text fill="#000000" font-family="sans-serif" font-size="12" lengthAdjust="spacing" textLength="109" x="485.5" y="1488.5115">in real environment</text><rect fill="#F1F1F1" height="36.3441" rx="12.5" ry="12.5" style="stroke:#181818;stroke-width:0.5;" width="176" x="452.5" y="1537.0275"/><text fill="#000000" font-family="sans-serif" font-size="12" lengthAdjust="spacing" textLength="156" x="462.5" y="1559.8556">Collect downstream metrics</text><polygon fill="#F1F1F1" points="540.5,1140.3432,552.5,1152.3432,540.5,1164.3432,528.5,1152.3432,540.5,1140.3432" style="stroke:#181818;stroke-width:0.5;"/><polygon fill="#F1F1F1" points="449,1610.2338,632,1610.2338,644,1622.2338,632,1634.2338,449,1634.2338,437,1622.2338,449,1610.2338" style="stroke:#181818;stroke-width:0.5;"/><text fill="#000000" font-family="sans-serif" font-size="11" lengthAdjust="spacing" textLength="183" x="449" y="1626.5018">All evaluation episodes completed?</text><rect fill="#555555" height="6" rx="2.5" ry="2.5" style="stroke:#555555;stroke-width:1.0;" width="824" x="21" y="1654.2338"/><rect fill="#F1F1F1" height="36.3441" rx="12.5" ry="12.5" style="stroke:#181818;stroke-width:0.5;" width="220" x="327" y="1680.2338"/><text fill="#000000" font-family="sans-serif" font-size="12" lengthAdjust="spacing" textLength="200" x="337" y="1703.0619">Aggregate collected measurements</text><rect fill="none" height="370.8532" style="stroke:#000000;stroke-width:1.5;" width="225" x="324.5" y="1738.578"/><path d="M462.5,1738.578 L462.5,1750.6459 L452.5,1760.6459 L324.5,1760.6459 " fill="none" style="stroke:#000000;stroke-width:1.5;"/><text fill="#000000" font-family="sans-serif" font-size="14" lengthAdjust="spacing" textLength="128" x="327.5" y="1754.5439">Evaluation Protocol</text><rect fill="#F1F1F1" height="36.3441" rx="12.5" ry="12.5" style="stroke:#181818;stroke-width:0.5;" width="205" x="334.5" y="1777.6459"/><text fill="#000000" font-family="sans-serif" font-size="12" lengthAdjust="spacing" textLength="185" x="344.5" y="1800.474">Process collected measurements</text><rect fill="#F1F1F1" height="101.7206" rx="12.5" ry="12.5" style="stroke:#181818;stroke-width:0.5;" width="175" x="349.5" y="1833.99"/><text fill="#000000" font-family="sans-serif" font-size="12" lengthAdjust="spacing" textLength="99" x="359.5" y="1856.8181">Compute metrics:</text><text fill="#000000" font-family="sans-serif" font-size="12" lengthAdjust="spacing" textLength="46" x="359.5" y="1873.1622">- Fidelity</text><text fill="#000000" font-family="sans-serif" font-size="12" lengthAdjust="spacing" textLength="60" x="359.5" y="1889.5063">- Efficiency</text><text fill="#000000" font-family="sans-serif" font-size="12" lengthAdjust="spacing" textLength="155" x="359.5" y="1905.8504">- Downstream performance</text><text fill="#000000" font-family="sans-serif" font-size="12" lengthAdjust="spacing" textLength="71" x="359.5" y="1922.1945">- Robustness</text><rect fill="#F1F1F1" height="52.6882" rx="12.5" ry="12.5" style="stroke:#181818;stroke-width:0.5;" width="165" x="354.5" y="1955.7106"/><text fill="#000000" font-family="sans-serif" font-size="12" lengthAdjust="spacing" textLength="145" x="364.5" y="1978.5387">Compute claim indicators:</text><text fill="#000000" font-family="sans-serif" font-size="12" lengthAdjust="spacing" textLength="78" x="364.5" y="1994.8828">C1, C2, C3, C4</text><rect fill="#F1F1F1" height="69.0323" rx="12.5" ry="12.5" style="stroke:#181818;stroke-width:0.5;" width="171" x="351.5" y="2028.3988"/><text fill="#000000" font-family="sans-serif" font-size="12" lengthAdjust="spacing" textLength="151" x="361.5" y="2051.2269">Perform targeted ablations</text><text fill="#000000" font-family="sans-serif" font-size="12" lengthAdjust="spacing" textLength="98" x="361.5" y="2067.571">(&#954;, WM backbone,</text><text fill="#000000" font-family="sans-serif" font-size="12" lengthAdjust="spacing" textLength="114" x="361.5" y="2083.9151">integration strategy)</text><rect fill="none" height="361.8208" style="stroke:#000000;stroke-width:1.5;" width="241" x="316.5" y="2121.0331"/><path d="M547.5,2121.0331 L547.5,2133.101 L537.5,2143.101 L316.5,2143.101 " fill="none" style="stroke:#000000;stroke-width:1.5;"/><text fill="#000000" font-family="sans-serif" font-size="14" lengthAdjust="spacing" textLength="221" x="319.5" y="2136.9991">Visual and Quantitative Evidence</text><rect fill="#F1F1F1" height="36.3441" rx="12.5" ry="12.5" style="stroke:#181818;stroke-width:0.5;" width="162" x="356" y="2160.101"/><text fill="#000000" font-family="sans-serif" font-size="12" lengthAdjust="spacing" textLength="142" x="366" y="2182.9291">Generate learning curves</text><rect fill="#F1F1F1" height="52.6882" rx="12.5" ry="12.5" style="stroke:#181818;stroke-width:0.5;" width="152" x="361" y="2216.4451"/><text fill="#000000" font-family="sans-serif" font-size="12" lengthAdjust="spacing" textLength="132" x="371" y="2239.2732">Generate compounding</text><text fill="#000000" font-family="sans-serif" font-size="12" lengthAdjust="spacing" textLength="69" x="371" y="2255.6174">error curves</text><rect fill="#F1F1F1" height="36.3441" rx="12.5" ry="12.5" style="stroke:#181818;stroke-width:0.5;" width="175" x="349.5" y="2289.1334"/><text fill="#000000" font-family="sans-serif" font-size="12" lengthAdjust="spacing" textLength="155" x="359.5" y="2311.9615">Generate robustness tables</text><rect fill="#F1F1F1" height="52.6882" rx="12.5" ry="12.5" style="stroke:#181818;stroke-width:0.5;" width="200" x="337" y="2345.4775"/><text fill="#000000" font-family="sans-serif" font-size="12" lengthAdjust="spacing" textLength="180" x="347" y="2368.3056">Generate PCA / low-dimensional</text><text fill="#000000" font-family="sans-serif" font-size="12" lengthAdjust="spacing" textLength="112" x="347" y="2384.6497">baseline projections</text><rect fill="#F1F1F1" height="52.6882" rx="12.5" ry="12.5" style="stroke:#181818;stroke-width:0.5;" width="143" x="365.5" y="2418.1657"/><text fill="#000000" font-family="sans-serif" font-size="12" lengthAdjust="spacing" textLength="123" x="375.5" y="2440.9938">Generate claim-space</text><text fill="#000000" font-family="sans-serif" font-size="12" lengthAdjust="spacing" textLength="75" x="375.5" y="2457.3379">visualizations</text><ellipse cx="437" cy="2513.8539" fill="none" rx="11" ry="11" style="stroke:#222222;stroke-width:1.0;"/><ellipse cx="437" cy="2513.8539" fill="#222222" rx="6" ry="6" style="stroke:#222222;stroke-width:1.0;"/><line style="stroke:#181818;stroke-width:1.0;" x1="437" x2="437" y1="30" y2="130.4009"/><polygon fill="#181818" points="433,120.4009,437,130.4009,441,120.4009,437,124.4009" style="stroke:#181818;stroke-width:1.0;"/><line style="stroke:#181818;stroke-width:1.0;" x1="380.5" x2="322.5" y1="414.8341" y2="414.8341"/><line style="stroke:#181818;stroke-width:1.0;" x1="322.5" x2="322.5" y1="414.8341" y2="436.8341"/><polygon fill="#181818" points="318.5,426.8341,322.5,436.8341,326.5,426.8341,322.5,430.8341" style="stroke:#181818;stroke-width:1.0;"/><line style="stroke:#181818;stroke-width:1.0;" x1="493.5" x2="551.5" y1="414.8341" y2="414.8341"/><line style="stroke:#181818;stroke-width:1.0;" x1="551.5" x2="551.5" y1="414.8341" y2="436.8341"/><polygon fill="#181818" points="547.5,426.8341,551.5,436.8341,555.5,426.8341,551.5,430.8341" style="stroke:#181818;stroke-width:1.0;"/><line style="stroke:#181818;stroke-width:1.0;" x1="322.5" x2="322.5" y1="473.1782" y2="491.1782"/><line style="stroke:#181818;stroke-width:1.0;" x1="322.5" x2="425" y1="491.1782" y2="491.1782"/><polygon fill="#181818" points="415,487.1782,425,491.1782,415,495.1782,419,491.1782" style="stroke:#181818;stroke-width:1.0;"/><line style="stroke:#181818;stroke-width:1.0;" x1="551.5" x2="551.5" y1="473.1782" y2="491.1782"/><line style="stroke:#181818;stroke-width:1.0;" x1="551.5" x2="449" y1="491.1782" y2="491.1782"/><polygon fill="#181818" points="459,487.1782,449,491.1782,459,495.1782,455,491.1782" style="stroke:#181818;stroke-width:1.0;"/><line style="stroke:#181818;stroke-width:1.0;" x1="437" x2="437" y1="382.8341" y2="402.8341"/><polygon fill="#181818" points="433,392.8341,437,402.8341,441,392.8341,437,396.8341" style="stroke:#181818;stroke-width:1.0;"/><line style="stroke:#181818;stroke-width:1.0;" x1="437" x2="437" y1="503.1782" y2="523.1782"/><polygon fill="#181818" points="433,513.1782,437,523.1782,441,513.1782,437,517.1782" style="stroke:#181818;stroke-width:1.0;"/><line style="stroke:#181818;stroke-width:1.0;" x1="334.75" x2="334.75" y1="666.2106" y2="686.2106"/><polygon fill="#181818" points="330.75,676.2106,334.75,686.2106,338.75,676.2106,334.75,680.2106" style="stroke:#181818;stroke-width:1.0;"/><line style="stroke:#181818;stroke-width:1.0;" x1="334.75" x2="334.75" y1="722.5547" y2="742.5547"/><polygon fill="#181818" points="330.75,732.5547,334.75,742.5547,338.75,732.5547,334.75,736.5547" style="stroke:#181818;stroke-width:1.0;"/><line style="stroke:#181818;stroke-width:1.0;" x1="334.75" x2="334.75" y1="778.8988" y2="798.8988"/><polygon fill="#181818" points="330.75,788.8988,334.75,798.8988,338.75,788.8988,334.75,792.8988" style="stroke:#181818;stroke-width:1.0;"/><line style="stroke:#181818;stroke-width:1.0;" x1="365.5" x2="334.75" y1="591.5223" y2="591.5223"/><line style="stroke:#181818;stroke-width:1.0;" x1="334.75" x2="334.75" y1="591.5223" y2="613.5223"/><polygon fill="#181818" points="330.75,603.5223,334.75,613.5223,338.75,603.5223,334.75,607.5223" style="stroke:#181818;stroke-width:1.0;"/><line style="stroke:#181818;stroke-width:1.0;" x1="508.5" x2="539.25" y1="591.5223" y2="591.5223"/><line style="stroke:#181818;stroke-width:1.0;" x1="539.25" x2="539.25" y1="591.5223" y2="613.5223"/><polygon fill="#181818" points="535.25,603.5223,539.25,613.5223,543.25,603.5223,539.25,607.5223" style="stroke:#181818;stroke-width:1.0;"/><line style="stroke:#181818;stroke-width:1.0;" x1="334.75" x2="334.75" y1="851.587" y2="869.587"/><line style="stroke:#181818;stroke-width:1.0;" x1="334.75" x2="425" y1="869.587" y2="869.587"/><polygon fill="#181818" points="415,865.587,425,869.587,415,873.587,419,869.587" style="stroke:#181818;stroke-width:1.0;"/><line style="stroke:#181818;stroke-width:1.0;" x1="539.25" x2="539.25" y1="666.2106" y2="869.587"/><line style="stroke:#181818;stroke-width:1.0;" x1="539.25" x2="449" y1="869.587" y2="869.587"/><polygon fill="#181818" points="459,865.587,449,869.587,459,873.587,455,869.587" style="stroke:#181818;stroke-width:1.0;"/><line style="stroke:#181818;stroke-width:1.0;" x1="437" x2="437" y1="559.5223" y2="579.5223"/><polygon fill="#181818" points="433,569.5223,437,579.5223,441,569.5223,437,573.5223" style="stroke:#181818;stroke-width:1.0;"/><line style="stroke:#181818;stroke-width:1.0;" x1="437" x2="437" y1="881.587" y2="901.587"/><polygon fill="#181818" points="433,891.587,437,901.587,441,891.587,437,895.587" style="stroke:#181818;stroke-width:1.0;"/><line style="stroke:#181818;stroke-width:1.0;" x1="437" x2="437" y1="326.49" y2="346.49"/><polygon fill="#181818" points="433,336.49,437,346.49,441,336.49,437,340.49" style="stroke:#181818;stroke-width:1.0;"/><line style="stroke:#181818;stroke-width:1.0;" x1="553" x2="680.5" y1="969.9311" y2="969.9311"/><polygon fill="#181818" points="676.5,659.7106,680.5,649.7106,684.5,659.7106,680.5,655.7106" style="stroke:#181818;stroke-width:1.0;"/><line style="stroke:#181818;stroke-width:1.0;" x1="680.5" x2="680.5" y1="314.49" y2="969.9311"/><line style="stroke:#181818;stroke-width:1.0;" x1="680.5" x2="449" y1="314.49" y2="314.49"/><polygon fill="#181818" points="459,310.49,449,314.49,459,318.49,455,314.49" style="stroke:#181818;stroke-width:1.0;"/><line style="stroke:#181818;stroke-width:1.0;" x1="437" x2="437" y1="937.9311" y2="957.9311"/><polygon fill="#181818" points="433,947.9311,437,957.9311,441,947.9311,437,951.9311" style="stroke:#181818;stroke-width:1.0;"/><line style="stroke:#181818;stroke-width:1.0;" x1="437" x2="437" y1="183.0891" y2="302.49"/><polygon fill="#181818" points="433,292.49,437,302.49,441,292.49,437,296.49" style="stroke:#181818;stroke-width:1.0;"/><line style="stroke:#181818;stroke-width:1.0;" x1="124.5" x2="124.5" y1="1292.6873" y2="1321.5133"/><polygon fill="#181818" points="120.5,1311.5133,124.5,1321.5133,128.5,1311.5133,124.5,1315.5133" style="stroke:#181818;stroke-width:1.0;"/><line style="stroke:#181818;stroke-width:1.0;" x1="124.5" x2="124.5" y1="1357.8574" y2="1377.8574"/><polygon fill="#181818" points="120.5,1367.8574,124.5,1377.8574,128.5,1367.8574,124.5,1371.8574" style="stroke:#181818;stroke-width:1.0;"/><line style="stroke:#181818;stroke-width:1.0;" x1="124.5" x2="124.5" y1="1430.5456" y2="1465.5456"/><polygon fill="#181818" points="120.5,1455.5456,124.5,1465.5456,128.5,1455.5456,124.5,1459.5456" style="stroke:#181818;stroke-width:1.0;"/><line style="stroke:#181818;stroke-width:1.0;" x1="124.5" x2="124.5" y1="1208.3432" y2="1256.3432"/><polygon fill="#181818" points="120.5,1246.3432,124.5,1256.3432,128.5,1246.3432,124.5,1250.3432" style="stroke:#181818;stroke-width:1.0;"/><line style="stroke:#181818;stroke-width:1.0;" x1="197" x2="224" y1="1578.2338" y2="1578.2338"/><polygon fill="#181818" points="220,1386.7015,224,1376.7015,228,1386.7015,224,1382.7015" style="stroke:#181818;stroke-width:1.0;"/><line style="stroke:#181818;stroke-width:1.0;" x1="224" x2="224" y1="1196.3432" y2="1578.2338"/><line style="stroke:#181818;stroke-width:1.0;" x1="224" x2="136.5" y1="1196.3432" y2="1196.3432"/><polygon fill="#181818" points="146.5,1192.3432,136.5,1196.3432,146.5,1200.3432,142.5,1196.3432" style="stroke:#181818;stroke-width:1.0;"/><line style="stroke:#181818;stroke-width:1.0;" x1="124.5" x2="124.5" y1="1518.2338" y2="1566.2338"/><polygon fill="#181818" points="120.5,1556.2338,124.5,1566.2338,128.5,1556.2338,124.5,1560.2338" style="stroke:#181818;stroke-width:1.0;"/><line style="stroke:#181818;stroke-width:1.0;" x1="124.5" x2="124.5" y1="1160.4809" y2="1184.3432"/><polygon fill="#181818" points="120.5,1174.3432,124.5,1184.3432,128.5,1174.3432,124.5,1178.3432" style="stroke:#181818;stroke-width:1.0;"/><line style="stroke:#181818;stroke-width:1.0;" x1="478.5" x2="351.5" y1="1213.2054" y2="1213.2054"/><line style="stroke:#181818;stroke-width:1.0;" x1="351.5" x2="351.5" y1="1213.2054" y2="1265.1692"/><polygon fill="#181818" points="347.5,1255.1692,351.5,1265.1692,355.5,1255.1692,351.5,1259.1692" style="stroke:#181818;stroke-width:1.0;"/><text fill="#000000" font-family="sans-serif" font-size="11" lengthAdjust="spacing" textLength="14" x="351.5" y="1243.4552">KV</text><line style="stroke:#181818;stroke-width:1.0;" x1="602.5" x2="728.5" y1="1213.2054" y2="1213.2054"/><line style="stroke:#181818;stroke-width:1.0;" x1="728.5" x2="728.5" y1="1213.2054" y2="1265.1692"/><polygon fill="#181818" points="724.5,1255.1692,728.5,1265.1692,732.5,1255.1692,728.5,1259.1692" style="stroke:#181818;stroke-width:1.0;"/><text fill="#000000" font-family="sans-serif" font-size="11" lengthAdjust="spacing" textLength="15" x="728.5" y="1243.4552">UV</text><line style="stroke:#181818;stroke-width:1.0;" x1="540.5" x2="540.5" y1="1225.2054" y2="1238.5266"/><line style="stroke:#181818;stroke-width:1.0;" x1="540.5" x2="539.5" y1="1238.5266" y2="1238.5266"/><line style="stroke:#181818;stroke-width:1.0;" x1="539.5" x2="539.5" y1="1238.5266" y2="1265.1692"/><polygon fill="#181818" points="535.5,1255.1692,539.5,1265.1692,543.5,1255.1692,539.5,1259.1692" style="stroke:#181818;stroke-width:1.0;"/><text fill="#000000" font-family="sans-serif" font-size="11" lengthAdjust="spacing" textLength="13" x="539.5" y="1244.4552">SV</text><line style="stroke:#181818;stroke-width:1.0;" x1="351.5" x2="351.5" y1="1301.5133" y2="1402.3393"/><line style="stroke:#181818;stroke-width:1.0;" x1="351.5" x2="528.5" y1="1402.3393" y2="1402.3393"/><polygon fill="#181818" points="518.5,1398.3393,528.5,1402.3393,518.5,1406.3393,522.5,1402.3393" style="stroke:#181818;stroke-width:1.0;"/><line style="stroke:#181818;stroke-width:1.0;" x1="728.5" x2="728.5" y1="1301.5133" y2="1402.3393"/><line style="stroke:#181818;stroke-width:1.0;" x1="728.5" x2="552.5" y1="1402.3393" y2="1402.3393"/><polygon fill="#181818" points="562.5,1398.3393,552.5,1402.3393,562.5,1406.3393,558.5,1402.3393" style="stroke:#181818;stroke-width:1.0;"/><line style="stroke:#181818;stroke-width:1.0;" x1="539.5" x2="539.5" y1="1301.5133" y2="1350.3393"/><line style="stroke:#181818;stroke-width:1.0;" x1="539.5" x2="540.5" y1="1350.3393" y2="1350.3393"/><line style="stroke:#181818;stroke-width:1.0;" x1="540.5" x2="540.5" y1="1350.3393" y2="1390.3393"/><polygon fill="#181818" points="536.5,1380.3393,540.5,1390.3393,544.5,1380.3393,540.5,1384.3393" style="stroke:#181818;stroke-width:1.0;"/><line style="stroke:#181818;stroke-width:1.0;" x1="540.5" x2="540.5" y1="1414.3393" y2="1449.3393"/><polygon fill="#181818" points="536.5,1439.3393,540.5,1449.3393,544.5,1439.3393,540.5,1443.3393" style="stroke:#181818;stroke-width:1.0;"/><line style="stroke:#181818;stroke-width:1.0;" x1="540.5" x2="540.5" y1="1502.0275" y2="1537.0275"/><polygon fill="#181818" points="536.5,1527.0275,540.5,1537.0275,544.5,1527.0275,540.5,1531.0275" style="stroke:#181818;stroke-width:1.0;"/><line style="stroke:#181818;stroke-width:1.0;" x1="540.5" x2="540.5" y1="1164.3432" y2="1201.2054"/><polygon fill="#181818" points="536.5,1191.2054,540.5,1201.2054,544.5,1191.2054,540.5,1195.2054" style="stroke:#181818;stroke-width:1.0;"/><line style="stroke:#181818;stroke-width:1.0;" x1="644" x2="829" y1="1622.2338" y2="1622.2338"/><polygon fill="#181818" points="825,1386.7015,829,1376.7015,833,1386.7015,829,1382.7015" style="stroke:#181818;stroke-width:1.0;"/><line style="stroke:#181818;stroke-width:1.0;" x1="829" x2="829" y1="1152.3432" y2="1622.2338"/><line style="stroke:#181818;stroke-width:1.0;" x1="829" x2="552.5" y1="1152.3432" y2="1152.3432"/><polygon fill="#181818" points="562.5,1148.3432,552.5,1152.3432,562.5,1156.3432,558.5,1152.3432" style="stroke:#181818;stroke-width:1.0;"/><line style="stroke:#181818;stroke-width:1.0;" x1="540.5" x2="540.5" y1="1573.3716" y2="1610.2338"/><polygon fill="#181818" points="536.5,1600.2338,540.5,1610.2338,544.5,1600.2338,540.5,1604.2338" style="stroke:#181818;stroke-width:1.0;"/><line style="stroke:#181818;stroke-width:1.0;" x1="540.5" x2="540.5" y1="1105.3432" y2="1140.3432"/><polygon fill="#181818" points="536.5,1130.3432,540.5,1140.3432,544.5,1130.3432,540.5,1134.3432" style="stroke:#181818;stroke-width:1.0;"/><line style="stroke:#181818;stroke-width:1.0;" x1="124.5" x2="124.5" y1="1048.999" y2="1124.1368"/><polygon fill="#181818" points="120.5,1114.1368,124.5,1124.1368,128.5,1114.1368,124.5,1118.1368" style="stroke:#181818;stroke-width:1.0;"/><line style="stroke:#181818;stroke-width:1.0;" x1="540.5" x2="540.5" y1="1048.999" y2="1068.999"/><polygon fill="#181818" points="536.5,1058.999,540.5,1068.999,544.5,1058.999,540.5,1062.999" style="stroke:#181818;stroke-width:1.0;"/><line style="stroke:#181818;stroke-width:1.0;" x1="124.5" x2="124.5" y1="1590.2338" y2="1654.2338"/><polygon fill="#181818" points="120.5,1644.2338,124.5,1654.2338,128.5,1644.2338,124.5,1648.2338" style="stroke:#181818;stroke-width:1.0;"/><line style="stroke:#181818;stroke-width:1.0;" x1="540.5" x2="540.5" y1="1634.2338" y2="1654.2338"/><polygon fill="#181818" points="536.5,1644.2338,540.5,1654.2338,544.5,1644.2338,540.5,1648.2338" style="stroke:#181818;stroke-width:1.0;"/><line style="stroke:#181818;stroke-width:1.0;" x1="437" x2="437" y1="1660.2338" y2="1680.2338"/><polygon fill="#181818" points="433,1670.2338,437,1680.2338,441,1670.2338,437,1674.2338" style="stroke:#181818;stroke-width:1.0;"/><line style="stroke:#181818;stroke-width:1.0;" x1="437" x2="437" y1="981.9311" y2="1042.999"/><polygon fill="#181818" points="433,1032.999,437,1042.999,441,1032.999,437,1036.999" style="stroke:#181818;stroke-width:1.0;"/><line style="stroke:#181818;stroke-width:1.0;" x1="437" x2="437" y1="1813.99" y2="1833.99"/><polygon fill="#181818" points="433,1823.99,437,1833.99,441,1823.99,437,1827.99" style="stroke:#181818;stroke-width:1.0;"/><line style="stroke:#181818;stroke-width:1.0;" x1="437" x2="437" y1="1935.7106" y2="1955.7106"/><polygon fill="#181818" points="433,1945.7106,437,1955.7106,441,1945.7106,437,1949.7106" style="stroke:#181818;stroke-width:1.0;"/><line style="stroke:#181818;stroke-width:1.0;" x1="437" x2="437" y1="2008.3988" y2="2028.3988"/><polygon fill="#181818" points="433,2018.3988,437,2028.3988,441,2018.3988,437,2022.3988" style="stroke:#181818;stroke-width:1.0;"/><line style="stroke:#181818;stroke-width:1.0;" x1="437" x2="437" y1="1716.578" y2="1777.6459"/><polygon fill="#181818" points="433,1767.6459,437,1777.6459,441,1767.6459,437,1771.6459" style="stroke:#181818;stroke-width:1.0;"/><line style="stroke:#181818;stroke-width:1.0;" x1="437" x2="437" y1="2196.4451" y2="2216.4451"/><polygon fill="#181818" points="433,2206.4451,437,2216.4451,441,2206.4451,437,2210.4451" style="stroke:#181818;stroke-width:1.0;"/><line style="stroke:#181818;stroke-width:1.0;" x1="437" x2="437" y1="2269.1334" y2="2289.1334"/><polygon fill="#181818" points="433,2279.1334,437,2289.1334,441,2279.1334,437,2283.1334" style="stroke:#181818;stroke-width:1.0;"/><line style="stroke:#181818;stroke-width:1.0;" x1="437" x2="437" y1="2325.4775" y2="2345.4775"/><polygon fill="#181818" points="433,2335.4775,437,2345.4775,441,2335.4775,437,2339.4775" style="stroke:#181818;stroke-width:1.0;"/><line style="stroke:#181818;stroke-width:1.0;" x1="437" x2="437" y1="2398.1657" y2="2418.1657"/><polygon fill="#181818" points="433,2408.1657,437,2418.1657,441,2408.1657,437,2412.1657" style="stroke:#181818;stroke-width:1.0;"/><line style="stroke:#181818;stroke-width:1.0;" x1="437" x2="437" y1="2097.4311" y2="2160.101"/><polygon fill="#181818" points="433,2150.101,437,2160.101,441,2150.101,437,2154.101" style="stroke:#181818;stroke-width:1.0;"/><line style="stroke:#181818;stroke-width:1.0;" x1="437" x2="437" y1="2470.8539" y2="2502.8539"/><polygon fill="#181818" points="433,2492.8539,437,2502.8539,441,2492.8539,437,2496.8539" style="stroke:#181818;stroke-width:1.0;"/><!--SRC=[ZLNDRjiu4BxpAGOzsLWRY_oq1_bGf97RxIu2fF6sFHHxeAcHp8OY1PAIwopsnVeGVQQTqO-jn0xQWmr9d9zlllbc6ABqKOYA_dNKpiABDpAWqHOXnQ0B2wjAAdm1_mgHhD2WYk2nyXZGHXbrWx3k7OB8lIiXRX2opZMmwq88woA2ryKcYgLKcxq7w42cEJrb84CYtdn9psRf-IozcAMNi_JbB7trZn3fMGAVRyX9tQ-THP6U9_2dqpREAsUqsedq8e6bRRHtjYHK8hrCOBKhrtmAoZNePO7muxj8NoRmtaOil6nh3P4UiA08hnBusqjjjIsel4ANAD1cmC25-EyHFyjl5NhDYQI1M- -YKyx0VE_VKaKKeIHUa_UMtAJH3mXuW0YDz5hQIDpe72PFKh-UCeaM9gjFKv7SOHqGWYoVYO26ZYStRBgIPMKG95ZSFcDiCvqJhBlQKZ9fvcChefIeKbncw97Tk0pDdFkLxRksXxV3C6LLHESHYCgl90xdDGb1S_JAo1siwpn7Jz6IZrL6PCFMUPD1oN7vwpkqo4q0NSf2swultXdZwXX6Rb_73Mzrnl3XjzwFu8q1a6D7YtNJdyOOEuApPiVUFK_NX8Gb7uSEbIX3xP7vuYnTds6xqOQR8B_fiYu1AnseG2e-Ap2oYZYJsc3sUlhBSi8G1pNbpjyJc6KZJSs5j6YevCTSdjHSvyAPUb2BllkkGZitpbK3s-q1gje76cgpWnmf0mrwfbN4JBXrGD-qeK8xYomNHuF9VZSTAuDvcyvxvuFWwOCDSVj0t_uuOkpAcE4q360xbhXca0KLUghojebTeuUomrP7sYsJvQ7aOPo4aYo6lsX600x1oEBUkgqTnYCi5htbwjYo7S3z77Lc7u_DQXiGHn5PIHsodlS1EMJQaxBChXiMQlve51SZwMM4a1OLofB45xrMuIIBnvqEjFju7_I4yZxhXNHL54GD8rPT4cBqYR2VYFGGV91eToFGcy8Gdez3PPHLJPbwx8cOmrjDWjLnHu_BF6SshEANz50fpGHXBQLLI0TtRbs7I3VCeuZAI5sI2abnagQNGb-VpU3wd7uNzBjaszik3j0jLp0H8DUcqx2O_FW-6zyhCw5FN0tJ8ou-wL1JjoJH-Q6c7kl-6bmsL9OThihzNZCeVRivQBAQLh27C-wFgwa0MuXsNauP-NtnLCNQF3czlRw2ty6uxJpZ9H88eZHYVy5Mtl5kwpVwA3DpDs_lPz6q1Ua7EPXHlI6wIlmF]--></g></svg>